<mxfile host="app.diagrams.net" modified="2023-03-17T10:46:45.686Z" agent="5.0 (Windows NT 10.0; Win64; x64) AppleWebKit/537.36 (KHTML, like Gecko) Chrome/110.0.0.0 Safari/537.36 OPR/96.0.0.0" etag="6CcbzHrVYPfxrkmWcZmu" version="21.0.6" type="github">
  <diagram name="Page-1" id="YizXqlMxTFFmfGiaMgVp">
    <mxGraphModel dx="1871" dy="2411" grid="1" gridSize="10" guides="1" tooltips="1" connect="1" arrows="1" fold="1" page="1" pageScale="1" pageWidth="850" pageHeight="1100" math="0" shadow="0">
      <root>
        <mxCell id="0" />
        <mxCell id="1" parent="0" />
        <mxCell id="wzwuGxx-aYTTG0eEZtZC-3" value="" style="edgeStyle=orthogonalEdgeStyle;rounded=0;orthogonalLoop=1;jettySize=auto;html=1;startArrow=classic;startFill=1;endArrow=none;endFill=0;" parent="1" source="wzwuGxx-aYTTG0eEZtZC-1" target="wzwuGxx-aYTTG0eEZtZC-2" edge="1">
          <mxGeometry relative="1" as="geometry" />
        </mxCell>
        <mxCell id="wzwuGxx-aYTTG0eEZtZC-30" value="" style="edgeStyle=orthogonalEdgeStyle;rounded=0;orthogonalLoop=1;jettySize=auto;html=1;startArrow=classic;startFill=1;" parent="1" source="wzwuGxx-aYTTG0eEZtZC-1" target="wzwuGxx-aYTTG0eEZtZC-29" edge="1">
          <mxGeometry relative="1" as="geometry" />
        </mxCell>
        <mxCell id="wzwuGxx-aYTTG0eEZtZC-34" value="" style="edgeStyle=orthogonalEdgeStyle;rounded=0;orthogonalLoop=1;jettySize=auto;html=1;startArrow=classic;startFill=1;endArrow=none;endFill=0;" parent="1" source="wzwuGxx-aYTTG0eEZtZC-1" target="wzwuGxx-aYTTG0eEZtZC-33" edge="1">
          <mxGeometry relative="1" as="geometry" />
        </mxCell>
        <mxCell id="wzwuGxx-aYTTG0eEZtZC-43" value="" style="edgeStyle=orthogonalEdgeStyle;rounded=0;orthogonalLoop=1;jettySize=auto;html=1;" parent="1" source="wzwuGxx-aYTTG0eEZtZC-1" target="wzwuGxx-aYTTG0eEZtZC-42" edge="1">
          <mxGeometry relative="1" as="geometry" />
        </mxCell>
        <mxCell id="wzwuGxx-aYTTG0eEZtZC-1" value="Defining Safety of Urban railway Systems" style="ellipse;whiteSpace=wrap;html=1;aspect=fixed;" parent="1" vertex="1">
          <mxGeometry x="350" y="475" width="150" height="150" as="geometry" />
        </mxCell>
        <mxCell id="wzwuGxx-aYTTG0eEZtZC-5" value="" style="edgeStyle=orthogonalEdgeStyle;rounded=0;orthogonalLoop=1;jettySize=auto;html=1;startArrow=classic;startFill=1;endArrow=none;endFill=0;" parent="1" source="wzwuGxx-aYTTG0eEZtZC-2" target="wzwuGxx-aYTTG0eEZtZC-4" edge="1">
          <mxGeometry relative="1" as="geometry" />
        </mxCell>
        <mxCell id="wzwuGxx-aYTTG0eEZtZC-19" value="" style="edgeStyle=orthogonalEdgeStyle;rounded=0;orthogonalLoop=1;jettySize=auto;html=1;startArrow=classic;startFill=1;" parent="1" source="wzwuGxx-aYTTG0eEZtZC-2" target="wzwuGxx-aYTTG0eEZtZC-18" edge="1">
          <mxGeometry relative="1" as="geometry" />
        </mxCell>
        <mxCell id="wzwuGxx-aYTTG0eEZtZC-2" value="Model how Accidents happen" style="whiteSpace=wrap;html=1;" parent="1" vertex="1">
          <mxGeometry x="365" y="360" width="120" height="60" as="geometry" />
        </mxCell>
        <mxCell id="wzwuGxx-aYTTG0eEZtZC-7" value="" style="edgeStyle=orthogonalEdgeStyle;rounded=0;orthogonalLoop=1;jettySize=auto;html=1;endArrow=none;endFill=0;" parent="1" source="wzwuGxx-aYTTG0eEZtZC-4" target="wzwuGxx-aYTTG0eEZtZC-6" edge="1">
          <mxGeometry relative="1" as="geometry" />
        </mxCell>
        <mxCell id="wzwuGxx-aYTTG0eEZtZC-11" value="" style="edgeStyle=orthogonalEdgeStyle;rounded=0;orthogonalLoop=1;jettySize=auto;html=1;startArrow=classic;startFill=1;endArrow=none;endFill=0;" parent="1" source="wzwuGxx-aYTTG0eEZtZC-4" target="wzwuGxx-aYTTG0eEZtZC-10" edge="1">
          <mxGeometry relative="1" as="geometry" />
        </mxCell>
        <mxCell id="wzwuGxx-aYTTG0eEZtZC-4" value="Erraticism Detection" style="whiteSpace=wrap;html=1;" parent="1" vertex="1">
          <mxGeometry x="365" y="260" width="120" height="60" as="geometry" />
        </mxCell>
        <mxCell id="wzwuGxx-aYTTG0eEZtZC-13" value="" style="edgeStyle=orthogonalEdgeStyle;rounded=0;orthogonalLoop=1;jettySize=auto;html=1;" parent="1" source="wzwuGxx-aYTTG0eEZtZC-6" target="wzwuGxx-aYTTG0eEZtZC-12" edge="1">
          <mxGeometry relative="1" as="geometry" />
        </mxCell>
        <mxCell id="wzwuGxx-aYTTG0eEZtZC-14" value="" style="edgeStyle=orthogonalEdgeStyle;rounded=0;orthogonalLoop=1;jettySize=auto;html=1;" parent="1" source="wzwuGxx-aYTTG0eEZtZC-6" target="wzwuGxx-aYTTG0eEZtZC-12" edge="1">
          <mxGeometry relative="1" as="geometry" />
        </mxCell>
        <mxCell id="wzwuGxx-aYTTG0eEZtZC-15" value="" style="edgeStyle=orthogonalEdgeStyle;rounded=0;orthogonalLoop=1;jettySize=auto;html=1;" parent="1" source="wzwuGxx-aYTTG0eEZtZC-6" target="wzwuGxx-aYTTG0eEZtZC-12" edge="1">
          <mxGeometry relative="1" as="geometry" />
        </mxCell>
        <mxCell id="wzwuGxx-aYTTG0eEZtZC-17" value="" style="edgeStyle=orthogonalEdgeStyle;rounded=0;orthogonalLoop=1;jettySize=auto;html=1;" parent="1" source="wzwuGxx-aYTTG0eEZtZC-6" target="wzwuGxx-aYTTG0eEZtZC-16" edge="1">
          <mxGeometry relative="1" as="geometry" />
        </mxCell>
        <mxCell id="wzwuGxx-aYTTG0eEZtZC-6" value="Estimate Pedestrian Behavior" style="whiteSpace=wrap;html=1;" parent="1" vertex="1">
          <mxGeometry x="280" y="120" width="120" height="60" as="geometry" />
        </mxCell>
        <mxCell id="wzwuGxx-aYTTG0eEZtZC-23" value="" style="edgeStyle=orthogonalEdgeStyle;rounded=0;orthogonalLoop=1;jettySize=auto;html=1;" parent="1" source="wzwuGxx-aYTTG0eEZtZC-10" target="wzwuGxx-aYTTG0eEZtZC-22" edge="1">
          <mxGeometry relative="1" as="geometry" />
        </mxCell>
        <mxCell id="wzwuGxx-aYTTG0eEZtZC-24" value="" style="edgeStyle=orthogonalEdgeStyle;rounded=0;orthogonalLoop=1;jettySize=auto;html=1;" parent="1" source="wzwuGxx-aYTTG0eEZtZC-10" target="wzwuGxx-aYTTG0eEZtZC-22" edge="1">
          <mxGeometry relative="1" as="geometry" />
        </mxCell>
        <mxCell id="wzwuGxx-aYTTG0eEZtZC-26" value="" style="edgeStyle=orthogonalEdgeStyle;rounded=0;orthogonalLoop=1;jettySize=auto;html=1;" parent="1" source="wzwuGxx-aYTTG0eEZtZC-10" target="wzwuGxx-aYTTG0eEZtZC-25" edge="1">
          <mxGeometry relative="1" as="geometry" />
        </mxCell>
        <mxCell id="wzwuGxx-aYTTG0eEZtZC-10" value="Identify anomalous situations" style="whiteSpace=wrap;html=1;" parent="1" vertex="1">
          <mxGeometry x="450" y="120" width="120" height="60" as="geometry" />
        </mxCell>
        <mxCell id="wzwuGxx-aYTTG0eEZtZC-12" value="Pedestrian Psychology" style="ellipse;whiteSpace=wrap;html=1;" parent="1" vertex="1">
          <mxGeometry x="180" y="70" width="70" height="60" as="geometry" />
        </mxCell>
        <mxCell id="wzwuGxx-aYTTG0eEZtZC-16" value="Previous Accidents" style="ellipse;whiteSpace=wrap;html=1;" parent="1" vertex="1">
          <mxGeometry x="180" y="150" width="70" height="60" as="geometry" />
        </mxCell>
        <mxCell id="wzwuGxx-aYTTG0eEZtZC-21" value="" style="edgeStyle=orthogonalEdgeStyle;rounded=0;orthogonalLoop=1;jettySize=auto;html=1;endArrow=none;endFill=0;" parent="1" source="wzwuGxx-aYTTG0eEZtZC-18" target="wzwuGxx-aYTTG0eEZtZC-20" edge="1">
          <mxGeometry relative="1" as="geometry" />
        </mxCell>
        <mxCell id="wzwuGxx-aYTTG0eEZtZC-28" value="" style="edgeStyle=orthogonalEdgeStyle;rounded=0;orthogonalLoop=1;jettySize=auto;html=1;endArrow=none;endFill=0;" parent="1" source="wzwuGxx-aYTTG0eEZtZC-18" target="wzwuGxx-aYTTG0eEZtZC-27" edge="1">
          <mxGeometry relative="1" as="geometry" />
        </mxCell>
        <mxCell id="wzwuGxx-aYTTG0eEZtZC-18" value="Mathematical Model of Safety" style="ellipse;whiteSpace=wrap;html=1;" parent="1" vertex="1">
          <mxGeometry x="500" y="360" width="100" height="60" as="geometry" />
        </mxCell>
        <mxCell id="wzwuGxx-aYTTG0eEZtZC-20" value="&lt;div&gt;Swiss cheese&lt;/div&gt;&lt;div&gt;model&lt;br&gt;&lt;/div&gt;" style="ellipse;shape=cloud;whiteSpace=wrap;html=1;" parent="1" vertex="1">
          <mxGeometry x="610" y="355" width="100" height="70" as="geometry" />
        </mxCell>
        <mxCell id="wzwuGxx-aYTTG0eEZtZC-22" value="Stress-data" style="ellipse;whiteSpace=wrap;html=1;" parent="1" vertex="1">
          <mxGeometry x="600" y="75" width="70" height="50" as="geometry" />
        </mxCell>
        <mxCell id="wzwuGxx-aYTTG0eEZtZC-25" value="Trajectory Estimation" style="ellipse;whiteSpace=wrap;html=1;" parent="1" vertex="1">
          <mxGeometry x="600" y="160" width="70" height="50" as="geometry" />
        </mxCell>
        <mxCell id="wzwuGxx-aYTTG0eEZtZC-27" value="Time To Contact" style="ellipse;shape=cloud;whiteSpace=wrap;html=1;" parent="1" vertex="1">
          <mxGeometry x="560" y="290" width="120" height="50" as="geometry" />
        </mxCell>
        <mxCell id="EhIsMyNbKFghoJWGRpfX-2" value="" style="edgeStyle=orthogonalEdgeStyle;rounded=0;orthogonalLoop=1;jettySize=auto;html=1;startArrow=classic;startFill=1;" parent="1" source="wzwuGxx-aYTTG0eEZtZC-29" target="EhIsMyNbKFghoJWGRpfX-1" edge="1">
          <mxGeometry relative="1" as="geometry" />
        </mxCell>
        <mxCell id="wzwuGxx-aYTTG0eEZtZC-29" value="What is detectable / What can we afford to not detect?" style="whiteSpace=wrap;html=1;" parent="1" vertex="1">
          <mxGeometry x="190" y="520" width="120" height="60" as="geometry" />
        </mxCell>
        <mxCell id="wzwuGxx-aYTTG0eEZtZC-31" value="" style="endArrow=ERmandOne;dashed=1;html=1;dashPattern=1 3;strokeWidth=2;rounded=0;exitX=1;exitY=0.5;exitDx=0;exitDy=0;entryX=0;entryY=0.5;entryDx=0;entryDy=0;endFill=0;startArrow=ERone;startFill=0;" parent="1" source="wzwuGxx-aYTTG0eEZtZC-6" target="wzwuGxx-aYTTG0eEZtZC-10" edge="1">
          <mxGeometry width="50" height="50" relative="1" as="geometry">
            <mxPoint x="780" y="300" as="sourcePoint" />
            <mxPoint x="820" y="160" as="targetPoint" />
            <Array as="points" />
          </mxGeometry>
        </mxCell>
        <mxCell id="wzwuGxx-aYTTG0eEZtZC-32" value="" style="endArrow=none;dashed=1;html=1;dashPattern=1 3;strokeWidth=2;rounded=0;exitX=0.5;exitY=0;exitDx=0;exitDy=0;entryX=0;entryY=0.5;entryDx=0;entryDy=0;" parent="1" source="wzwuGxx-aYTTG0eEZtZC-29" target="wzwuGxx-aYTTG0eEZtZC-2" edge="1">
          <mxGeometry width="50" height="50" relative="1" as="geometry">
            <mxPoint x="230" y="460" as="sourcePoint" />
            <mxPoint x="280" y="410" as="targetPoint" />
            <Array as="points">
              <mxPoint x="250" y="390" />
            </Array>
          </mxGeometry>
        </mxCell>
        <mxCell id="wzwuGxx-aYTTG0eEZtZC-37" value="" style="edgeStyle=orthogonalEdgeStyle;rounded=0;orthogonalLoop=1;jettySize=auto;html=1;endArrow=none;endFill=0;" parent="1" source="wzwuGxx-aYTTG0eEZtZC-33" target="wzwuGxx-aYTTG0eEZtZC-36" edge="1">
          <mxGeometry relative="1" as="geometry" />
        </mxCell>
        <mxCell id="wzwuGxx-aYTTG0eEZtZC-39" value="" style="edgeStyle=orthogonalEdgeStyle;rounded=0;orthogonalLoop=1;jettySize=auto;html=1;endArrow=none;endFill=0;" parent="1" source="wzwuGxx-aYTTG0eEZtZC-33" target="wzwuGxx-aYTTG0eEZtZC-38" edge="1">
          <mxGeometry relative="1" as="geometry" />
        </mxCell>
        <mxCell id="wzwuGxx-aYTTG0eEZtZC-41" value="" style="edgeStyle=orthogonalEdgeStyle;rounded=0;orthogonalLoop=1;jettySize=auto;html=1;startArrow=classic;startFill=1;endArrow=none;endFill=0;" parent="1" source="wzwuGxx-aYTTG0eEZtZC-33" target="wzwuGxx-aYTTG0eEZtZC-40" edge="1">
          <mxGeometry relative="1" as="geometry" />
        </mxCell>
        <mxCell id="wzwuGxx-aYTTG0eEZtZC-33" value="Demonstrating assured safety" style="whiteSpace=wrap;html=1;" parent="1" vertex="1">
          <mxGeometry x="550" y="520" width="120" height="60" as="geometry" />
        </mxCell>
        <mxCell id="wzwuGxx-aYTTG0eEZtZC-36" value="Clarity" style="ellipse;whiteSpace=wrap;html=1;" parent="1" vertex="1">
          <mxGeometry x="680" y="595" width="80" height="30" as="geometry" />
        </mxCell>
        <mxCell id="wzwuGxx-aYTTG0eEZtZC-38" value="Mitigation" style="ellipse;whiteSpace=wrap;html=1;" parent="1" vertex="1">
          <mxGeometry x="680" y="475" width="80" height="30" as="geometry" />
        </mxCell>
        <mxCell id="wzwuGxx-aYTTG0eEZtZC-40" value="Accountability" style="ellipse;whiteSpace=wrap;html=1;" parent="1" vertex="1">
          <mxGeometry x="750" y="530" width="80" height="40" as="geometry" />
        </mxCell>
        <mxCell id="wzwuGxx-aYTTG0eEZtZC-42" value="Key hypothesis" style="whiteSpace=wrap;html=1;" parent="1" vertex="1">
          <mxGeometry x="367" y="680" width="115" height="30" as="geometry" />
        </mxCell>
        <mxCell id="wzwuGxx-aYTTG0eEZtZC-44" value="&lt;p style=&quot;margin-bottom: 0cm; line-height: normal;&quot; class=&quot;MsoNormal&quot;&gt;&lt;font style=&quot;font-size: 12px;&quot; face=&quot;Times New Roman&quot;&gt;Statistical approaches of safety, while the most common form of measurement, are inadequate for the purposes of autonomy. Deaths/Year or Deaths/Mile are pure anomaly focused approaches and are not testable within a live environment, an alternative must be &lt;font style=&quot;font-size: 12px;&quot;&gt;suggested.&lt;/font&gt;&lt;/font&gt;&lt;/p&gt;&lt;p style=&quot;margin-bottom: 0cm; line-height: normal;&quot; class=&quot;MsoNormal&quot;&gt;&lt;font style=&quot;font-size: 12px;&quot; face=&quot;Times New Roman&quot;&gt;&lt;span style=&quot;&quot;&gt;By taking a predictive approach rather than a reactive one we can detect anomalous behaviour that can lead to accidents and will ultimately provide a better metric for safety.&lt;/span&gt;&lt;/font&gt;&lt;/p&gt;" style="whiteSpace=wrap;html=1;aspect=fixed;" parent="1" vertex="1">
          <mxGeometry x="320" y="710" width="210" height="210" as="geometry" />
        </mxCell>
        <mxCell id="wzwuGxx-aYTTG0eEZtZC-46" value="&lt;font face=&quot;Times New Roman&quot;&gt;Computer vision&lt;/font&gt;" style="text;html=1;strokeColor=none;fillColor=none;align=center;verticalAlign=middle;whiteSpace=wrap;rounded=0;" parent="1" vertex="1">
          <mxGeometry x="270" y="90" width="120" height="30" as="geometry" />
        </mxCell>
        <mxCell id="wzwuGxx-aYTTG0eEZtZC-47" value="&lt;font face=&quot;Times New Roman&quot;&gt;Synthetic Data&lt;br&gt;&lt;/font&gt;" style="text;html=1;strokeColor=none;fillColor=none;align=center;verticalAlign=middle;whiteSpace=wrap;rounded=0;" parent="1" vertex="1">
          <mxGeometry x="450" y="90" width="120" height="30" as="geometry" />
        </mxCell>
        <mxCell id="EhIsMyNbKFghoJWGRpfX-4" value="" style="edgeStyle=orthogonalEdgeStyle;rounded=0;orthogonalLoop=1;jettySize=auto;html=1;startArrow=classic;startFill=1;" parent="1" source="EhIsMyNbKFghoJWGRpfX-1" target="EhIsMyNbKFghoJWGRpfX-3" edge="1">
          <mxGeometry relative="1" as="geometry" />
        </mxCell>
        <mxCell id="EhIsMyNbKFghoJWGRpfX-6" value="" style="edgeStyle=orthogonalEdgeStyle;rounded=0;orthogonalLoop=1;jettySize=auto;html=1;startArrow=classic;startFill=1;" parent="1" source="EhIsMyNbKFghoJWGRpfX-1" target="EhIsMyNbKFghoJWGRpfX-5" edge="1">
          <mxGeometry relative="1" as="geometry" />
        </mxCell>
        <mxCell id="EhIsMyNbKFghoJWGRpfX-1" value="Trade offs within safety" style="whiteSpace=wrap;html=1;" parent="1" vertex="1">
          <mxGeometry x="20" y="520" width="120" height="60" as="geometry" />
        </mxCell>
        <mxCell id="EhIsMyNbKFghoJWGRpfX-3" value="Define Mission Statement" style="ellipse;whiteSpace=wrap;html=1;" parent="1" vertex="1">
          <mxGeometry x="40" y="400" width="80" height="50" as="geometry" />
        </mxCell>
        <mxCell id="EhIsMyNbKFghoJWGRpfX-5" value="Comparison to current GoA-4 systems" style="ellipse;whiteSpace=wrap;html=1;" parent="1" vertex="1">
          <mxGeometry x="30" y="650" width="100" height="60" as="geometry" />
        </mxCell>
        <mxCell id="EhIsMyNbKFghoJWGRpfX-7" value="Current systems typically limit their scope, limiting operation of GoA-4 to be tunnels without the need of computer vision" style="text;html=1;strokeColor=none;fillColor=none;align=center;verticalAlign=middle;whiteSpace=wrap;rounded=0;" parent="1" vertex="1">
          <mxGeometry x="30" y="720" width="110" height="110" as="geometry" />
        </mxCell>
        <mxCell id="XZHoZLcCiwLTe7WHyc-X-1" value="" style="endArrow=none;dashed=1;html=1;dashPattern=1 3;strokeWidth=2;rounded=0;entryX=0.55;entryY=0.95;entryDx=0;entryDy=0;entryPerimeter=0;exitX=0.5;exitY=0;exitDx=0;exitDy=0;" edge="1" parent="1" source="wzwuGxx-aYTTG0eEZtZC-38" target="wzwuGxx-aYTTG0eEZtZC-20">
          <mxGeometry width="50" height="50" relative="1" as="geometry">
            <mxPoint x="580" y="500" as="sourcePoint" />
            <mxPoint x="630" y="450" as="targetPoint" />
            <Array as="points">
              <mxPoint x="720" y="450" />
              <mxPoint x="665" y="450" />
            </Array>
          </mxGeometry>
        </mxCell>
        <mxCell id="XZHoZLcCiwLTe7WHyc-X-2" value="What is detected" style="shape=process;whiteSpace=wrap;html=1;backgroundOutline=1;" vertex="1" parent="1">
          <mxGeometry x="170" y="-70" width="120" height="60" as="geometry" />
        </mxCell>
        <mxCell id="XZHoZLcCiwLTe7WHyc-X-4" value="" style="shape=flexArrow;endArrow=classic;html=1;rounded=0;exitX=0.5;exitY=1;exitDx=0;exitDy=0;entryX=0.5;entryY=0;entryDx=0;entryDy=0;" edge="1" parent="1" source="XZHoZLcCiwLTe7WHyc-X-2" target="wzwuGxx-aYTTG0eEZtZC-46">
          <mxGeometry width="50" height="50" relative="1" as="geometry">
            <mxPoint x="400" y="140" as="sourcePoint" />
            <mxPoint x="280" y="40" as="targetPoint" />
            <Array as="points">
              <mxPoint x="230" y="50" />
              <mxPoint x="330" y="50" />
            </Array>
          </mxGeometry>
        </mxCell>
        <mxCell id="XZHoZLcCiwLTe7WHyc-X-5" value="What has been simulated" style="shape=process;whiteSpace=wrap;html=1;backgroundOutline=1;" vertex="1" parent="1">
          <mxGeometry x="575" y="-70" width="120" height="60" as="geometry" />
        </mxCell>
        <mxCell id="XZHoZLcCiwLTe7WHyc-X-6" value="" style="shape=flexArrow;endArrow=classic;html=1;rounded=0;exitX=0.5;exitY=1;exitDx=0;exitDy=0;entryX=0.5;entryY=0;entryDx=0;entryDy=0;" edge="1" parent="1" source="XZHoZLcCiwLTe7WHyc-X-5" target="wzwuGxx-aYTTG0eEZtZC-47">
          <mxGeometry width="50" height="50" relative="1" as="geometry">
            <mxPoint x="399.5" y="30" as="sourcePoint" />
            <mxPoint x="449.5" y="-20" as="targetPoint" />
            <Array as="points">
              <mxPoint x="635" y="30" />
              <mxPoint x="510" y="30" />
            </Array>
          </mxGeometry>
        </mxCell>
      </root>
    </mxGraphModel>
  </diagram>
</mxfile>
